<svg width="500" height="500" xmlns="http://www.w3.org/2000/svg">

 <g>
  <title>background</title>
  <rect fill="none" id="canvas_background" height="602" width="802" y="-1" x="-1"/>
 </g>
 <g>
  <title>Layer 1</title>
  <g id="freepik--Shadow--inject-45">
   <g id="freepik--Shape--inject-45">
    <ellipse fill="#f5f5f5" ry="11.32" rx="193.89" cy="416.24" cx="250" id="freepik--path--inject-76--inject-45"/>
   </g>
  </g>
  <g id="freepik--background-complete--inject-45">
   <rect id="svg_1" fill="#e0e0e0" height="0.25" width="500" y="381.96" x="0.12"/>
   <rect id="svg_2" fill="#e0e0e0" height="0.25" width="57.77" y="393.95" x="51.77"/>
   <rect id="svg_3" fill="#e0e0e0" height="0.25" width="26.32" y="388.52" x="209.46"/>
   <rect id="svg_4" fill="#e0e0e0" height="0.25" width="51.28" y="388.39" x="245.4"/>
   <rect id="svg_5" fill="#e0e0e0" height="0.25" width="12.49" y="391.39" x="381.8"/>
   <rect id="svg_6" fill="#e0e0e0" height="0.25" width="49.82" y="391.39" x="288.85"/>
   <rect id="svg_7" fill="#e0e0e0" height="0.25" width="9.9" y="393.95" x="119.22"/>
   <rect id="svg_8" fill="#e0e0e0" height="0.25" width="43.25" y="391.39" x="402.45"/>
   <path id="svg_9" fill="#e0e0e0" d="m237.12,54.56l-193.12,0a5.72,5.72 0 0 0 -5.45,4a5.37,5.37 0 0 0 -0.25,1.61l0,271.48a5.71,5.71 0 0 0 5.7,5.71l193.12,0a5.71,5.71 0 0 0 5.71,-5.71l0,-271.38a5.71,5.71 0 0 0 -5.71,-5.71zm5.46,277.09a5.47,5.47 0 0 1 -5.46,5.46l-193.12,0a5.46,5.46 0 0 1 -5.45,-5.46l0,-271.43a5.46,5.46 0 0 1 5.45,-5.46l193.12,0a5.48,5.48 0 0 1 5.46,5.46l0,271.43z"/>
   <path id="svg_10" fill="#e0e0e0" d="m453.43,54.56l-193.1,0a5.72,5.72 0 0 0 -5.71,5.66l0,271.43a5.71,5.71 0 0 0 5.71,5.71l193.1,0a5.71,5.71 0 0 0 5.69,-5.71l0,-271.43a5.71,5.71 0 0 0 -5.69,-5.66zm5.46,277.09a5.47,5.47 0 0 1 -5.46,5.46l-193.1,0a5.46,5.46 0 0 1 -5.46,-5.46l0,-271.43a5.47,5.47 0 0 1 5.46,-5.46l193.1,0a5.48,5.48 0 0 1 5.46,5.46l0,271.43z"/>
   <path id="svg_11" fill="#f5f5f5" d="m371.15,103.69l105.85,0s-6.39,-11.58 -19.57,-8c0,0 1.6,-19.35 -8.79,-22.45s-16,8.87 -16,8.87s-7.19,-22.37 -20.77,-19.57s-19.17,26 -19.17,26s-19.95,-7.22 -21.55,15.15z"/>
   <path id="svg_12" fill="#f5f5f5" d="m218.11,141.56l105.89,0s-6.4,-11.59 -19.58,-8c0,0 1.6,-19.35 -8.79,-22.46s-16,8.88 -16,8.88s-7.19,-22.37 -20.77,-19.58s-19.18,26 -19.18,26s-19.97,-7.21 -21.57,15.16z"/>
   <rect id="svg_13" fill="#f5f5f5" height="311.76" width="177.53" y="70.2" x="38.66"/>
   <rect id="svg_14" fill="#fafafa" height="212.45" width="112.54" y="169.76" x="74.07"/>
   <rect id="svg_15" fill="#e6e6e6" height="205.7" width="97.32" y="176.51" x="82.18"/>
   <path id="svg_16" fill="#ebebeb" d="m222.62,72.47l-184,0l0,-13.86a6.24,6.24 0 0 1 6,-4l171.71,0l0.08,0.2l4.51,12.87l1.7,4.79z"/>
   <ellipse id="svg_17" fill="#ebebeb" ry="8.37" rx="9.21" cy="72.47" cx="47.54"/>
   <ellipse id="svg_18" fill="#ebebeb" ry="8.37" rx="9.21" cy="72.47" cx="65.97"/>
   <ellipse id="svg_19" fill="#ebebeb" ry="8.37" rx="9.21" cy="72.47" cx="84.4"/>
   <ellipse id="svg_20" fill="#ebebeb" ry="8.37" rx="9.21" cy="72.47" cx="102.83"/>
   <ellipse id="svg_21" fill="#ebebeb" ry="8.37" rx="9.21" cy="72.47" cx="121.26"/>
   <ellipse id="svg_22" fill="#ebebeb" ry="8.37" rx="9.21" cy="72.47" cx="139.69"/>
   <ellipse id="svg_23" fill="#ebebeb" ry="8.37" rx="9.21" cy="72.47" cx="158.11"/>
   <ellipse id="svg_24" fill="#ebebeb" ry="8.37" rx="9.21" cy="72.47" cx="176.54"/>
   <ellipse id="svg_25" fill="#ebebeb" ry="8.37" rx="9.21" cy="72.47" cx="194.97"/>
   <path id="svg_26" fill="#ebebeb" d="m222.62,72.47c0,4.62 -4.13,8.37 -9.22,8.37s-9.22,-3.75 -9.22,-8.37s4.13,-8.37 9.22,-8.37a9.49,9.49 0 0 1 7.52,3.53l1.7,4.84z"/>
   <rect id="svg_27" fill="#fafafa" height="2.92" width="177.53" y="97.26" x="38.66"/>
   <rect id="svg_28" fill="#e0e0e0" height="6.19" width="137.7" y="315.88" x="216.2"/>
   <polygon id="svg_29" fill="#e6e6e6" points="245.16 381.95 224.37 381.95 224.37 285.46 234.76 276.58 245.16 285.46 245.16 381.95"/>
   <polygon id="svg_30" fill="#e6e6e6" points="274.94 381.95 254.15 381.95 254.15 285.46 264.55 276.58 274.94 285.46 274.94 381.95"/>
   <polygon id="svg_31" fill="#e6e6e6" points="304.73 381.95 283.94 381.95 283.94 285.46 294.33 276.58 304.73 285.46 304.73 381.95"/>
   <polygon id="svg_32" fill="#e6e6e6" points="334.51 381.95 313.72 381.95 313.72 285.46 324.12 276.58 334.51 285.46 334.51 381.95"/>
   <polygon id="svg_33" fill="#e6e6e6" points="364.29 381.95 343.51 381.95 343.51 285.46 353.9 276.58 364.29 285.46 364.29 381.95"/>
  </g>
  <g id="freepik--character-1--inject-45">
   <path id="svg_34" fill="#263238" d="m149.47,89.58s-1.93,-4.72 -13.82,-3.32s-13.12,17.14 -19.06,28.33s-12.25,16.62 -12.25,16.62s-0.87,6.82 12.07,10.67s38.3,-2.58 38.3,-2.58s3.28,-29.79 -1.59,-38.88s-3.65,-10.84 -3.65,-10.84z"/>
   <path id="svg_35" fill="#263238" d="m184.23,387.15l-16.11,1s-6.83,-62.08 -14.35,-107.28c0,-0.15 0,-0.32 -0.07,-0.49c-3.08,-18.45 -6.27,-34 -9.15,-41.29c0,0 -3.7,57.87 -4.8,83.56s-6.23,70.64 -6.23,70.64l-14.89,2.21s-2.46,-89.48 -1,-106.38s-5.19,-79.5 6.27,-95l41.45,0s16.05,87.94 17.21,112.32s1.67,80.71 1.67,80.71z"/>
   <polygon id="svg_36" fill="#ff8b7b" points="130.02 393.49 129.78 398.29 129.22 409.4 120.88 410.64 120.69 398.65 120.62 394.04 130.02 393.49"/>
   <path id="svg_37" fill="#ff8b7b" d="m180.65,405.66l-9.33,2.6s-0.22,-5.61 -0.44,-11c-0.14,-3.47 -0.28,-6.85 -0.37,-8.58c0,-0.67 -0.06,-1.08 -0.08,-1.17l10.06,-1l0,3.16l0.07,7.14l0.09,8.85z"/>
   <path id="svg_38" fill="none" stroke="#5F76E8" stroke-miterlimit="10" d="m132.58,406.94s1.55,-6.21 4,-5.9s-4,5.9 -4,5.9z"/>
   <path id="svg_39" fill="none" stroke="#5F76E8" stroke-miterlimit="10" d="m133.28,406.94s5.83,-4.11 6.91,-2s-6.91,2 -6.91,2z"/>
   <path id="svg_40" fill="none" stroke="#5F76E8" stroke-miterlimit="10" d="m184.23,407.57s1.3,-6.57 2.77,-6.57s-2.77,6.57 -2.77,6.57z"/>
   <path id="svg_41" fill="none" stroke="#5F76E8" stroke-miterlimit="10" d="m183.92,409.61s3.42,-6.73 5.21,-5.28s-5.21,5.28 -5.21,5.28z"/>
   <path id="svg_42" fill="#263238" d="m139.86,415s-17.78,0.46 -19.07,0.3s-2.72,-0.23 -2.82,-1.63c0,-0.68 0.61,-4.81 0.71,-6.25s-0.26,-2.19 1.55,-2.65s10.6,-1.48 11.66,-0.39s4.68,5.24 7.36,5.72s4.93,0.29 5.12,1.81s0.25,2.98 -4.51,3.09z"/>
   <path id="svg_43" fill="#263238" d="m191.05,415s-17.77,0.46 -19.07,0.3s-2.58,-0.55 -2.79,-1.2s0.59,-5.24 0.68,-6.68s-0.26,-2.19 1.55,-2.65s10.6,-1.48 11.66,-0.39s4.68,5.24 7.37,5.72s4.92,0.29 5.11,1.81s0.25,2.98 -4.51,3.09z"/>
   <path id="svg_44" opacity="0.3" d="m153.7,280.37c-3.08,-18.45 -6.27,-34 -9.15,-41.29l1.91,-10.48s4.95,37.4 7.24,51.77z"/>
   <path id="svg_45" opacity="0.2" d="m130,393.49l-0.24,4.8c-2.34,0.09 -7,0.26 -9.09,0.36l-0.07,-4.61l9.4,-0.55z"/>
   <path id="svg_46" opacity="0.2" d="m180.58,396.8l-9.7,0.46c-0.14,-3.47 -0.28,-6.85 -0.37,-8.58l10,1l0.07,7.12z"/>
   <polygon id="svg_47" fill="#5F76E8" points="186.98 386.5 185.49 394.11 167.73 395.49 165.4 386.5 186.98 386.5"/>
   <polygon id="svg_48" fill="#5F76E8" points="135.91 388.98 134.35 396.5 115.81 397.38 115.82 388.98 135.91 388.98"/>
   <path id="svg_49" fill="#5F76E8" d="m190.9,170.89c-4,1.91 -15,4 -15,4s-7.2,-18.61 -9.1,-29.19a17.7,17.7 0 0 0 -15.23,-14.8c-4.86,-0.63 -25.38,-0.42 -32.58,1.06s-8.45,12.05 -9.09,18.4s-4.65,30 -1.27,37s15.23,4.22 15.23,4.22l0,2.54l41.46,0l-1,-19.4s3.92,10.3 10,10.72s19.88,-9.72 19.88,-9.72l-3.3,-4.83zm-73,10.85s0.46,-12.08 1.28,-15.56l1.25,6.45l1.76,9.11l-4.29,0z"/>
   <path id="svg_50" fill="#ff8b7b" d="m144.27,179l6.52,-7.89l9.15,-1.4l1.4,8.13l-7,2.56s-3.37,4.06 -10.1,3.36l0.03,-4.76z"/>
   <path id="svg_51" fill="#ff8b7b" d="m190.9,170.89l3.39,-6.22l8.27,-3.48l3.13,8.47l-6.85,2.67s-1.79,3.94 -4.55,3.43l-3.39,-4.87z"/>
   <path id="svg_52" fill="#ff8b7b" d="m144.41,123.32a17.36,17.36 0 0 0 0,2.16c0.1,1.37 -0.16,3.88 2.53,5.2c-1.39,3 -4.74,10.52 -6.77,13.07c-3.09,-2.53 -10.35,-12.74 -10.35,-12.74s5.1,-5.53 1.44,-15.95c0,0 -5.14,-3.76 -4.11,-5.83c1.18,-2.41 4.53,-1.11 5.24,-0.09c-0.75,-1.1 -4.24,-13.17 0,-17.61c2.64,-2.77 5.28,-2.8 10.2,-3l0.41,0c3.15,-0.11 5.49,0 5.49,0l0,0a21.87,21.87 0 0 1 2.81,3.77l0,0a28,28 0 0 1 4,12c0.93,9.91 -1.02,17.94 -10.89,19.02z"/>
   <path id="svg_53" fill="none" stroke="#263238" stroke-linecap="round" stroke-linejoin="round" stroke-width="0.5px" d="m147.13,111s-4.48,1.52 -6.11,-1.88"/>
   <path id="svg_54" fill="none" stroke="#263238" stroke-linecap="round" stroke-linejoin="round" d="m141.72,96.7a4,4 0 0 0 -3.66,2.14"/>
   <path id="svg_55" fill="none" stroke="#263238" stroke-linecap="round" stroke-linejoin="round" d="m153.12,95.67a4,4 0 0 0 -2.85,-1.3"/>
   <path id="svg_56" fill="#ff5652" d="m149,109.16l-0.88,-7.49l4.41,5.66s-0.43,1.95 -3.53,1.83z"/>
   <path id="svg_57" fill="#263238" d="m141.76,101.73c0.05,0.76 0.5,1.35 1,1.32s0.85,-0.68 0.79,-1.45s-0.49,-1.35 -1,-1.31s-0.85,0.71 -0.79,1.44z"/>
   <path id="svg_58" fill="#263238" d="m150.48,100.48c0.06,0.77 0.5,1.36 1,1.32s0.85,-0.68 0.79,-1.45s-0.5,-1.35 -1,-1.31s-0.84,0.68 -0.79,1.44z"/>
   <path id="svg_59" fill="#263238" d="m129.35,103.6s-5.11,-6.85 -0.89,-11.29c2.64,-2.77 9.74,-4.58 14.65,-4.79c-0.11,1.16 0,11.32 -13.76,16.08z"/>
   <path id="svg_60" fill="#263238" d="m151.38,92.33a14.3,14.3 0 0 1 -8.38,-3.83l-0.39,-0.41a26.23,26.23 0 0 1 5.88,0.42l0,0a21.87,21.87 0 0 1 2.81,3.77l0.08,0.05z"/>
   <path id="svg_61" opacity="0.2" d="m144.44,125.48a11.47,11.47 0 0 1 -5.54,-3.71a15.26,15.26 0 0 0 5.51,1.55a17.36,17.36 0 0 0 0.03,2.16z"/>
   <path id="svg_62" opacity="0.2" d="m120.44,172.63l-1.25,-6.45l0,-9.26s1.44,9.77 1.25,15.71z"/>
  </g>
  <g id="freepik--character-2--inject-45">
   <rect id="svg_63" fill="#5F76E8" transform="rotate(-3.240000009536743 198.08953857421918,161.1882476806642) " height="56.19" width="73.01" y="133.09324" x="161.58455"/>
   <rect id="svg_64" opacity="0.3" transform="rotate(-3.240000009536743 198.08953857421918,161.1882476806642) " height="56.19" width="73.01" y="133.09324" x="161.58455"/>
   <rect id="svg_65" fill="#5F76E8" transform="rotate(-3.240000009536743 171.46954345703162,161.1982421874999) " height="56.19" width="73.01" y="133.10324" x="134.96455"/>
   <rect id="svg_66" fill="#fff" opacity="0.3" transform="rotate(-3.240000009536743 171.46954345703162,161.1982421874999) " height="56.19" width="73.01" y="133.10324" x="134.96455"/>
   <rect id="svg_67" opacity="0.3" transform="matrix(1,-0.06,0.06,1,-8.19,15.96) " height="5.25" width="15.56" y="139.80461" x="181.71614"/>
   <rect id="svg_68" fill="#fff" opacity="0.5" transform="rotate(-3.240000009536743 157.49122619628946,171.64657592773457) " height="8.5" width="15.56" y="167.39657" x="149.71122"/>
   <rect id="svg_69" opacity="0.3" transform="rotate(-3.240000009536743 -71.77545166015629,-14.456759452819728) " height="6.63" width="23.88" y="162.53324" x="134.89455"/>
   <path id="svg_70" fill="#a02724" d="m325.28,96.43l-4,5.1a8.66,8.66 0 0 0 3.72,1.47l0.28,-6.57z"/>
   <polygon id="svg_71" fill="#b55b52" points="394.32 409.21 382.7 408.55 380.34 398.64 379.05 393.21 378.57 391.21 387.51 390.6 388.15 390.55 390.05 396.3 394.32 409.21"/>
   <path id="svg_72" fill="#b55b52" d="m327.5,410.84c0.22,0.79 -10.79,-0.62 -10.79,-0.62l-0.39,-9.25l-0.3,-7.14l0,-0.39l0.09,0l11.18,1.11s0,3 0,6.41c0.02,4.38 0.08,9.45 0.21,9.88z"/>
   <path id="svg_73" fill="#b55b52" d="m350.82,123.25s-15.7,4.25 -14.54,1.17a15.81,15.81 0 0 0 0.69,-5.77c0,-1.28 -0.16,-2.19 -0.16,-2.19c-5.68,0.33 -9.5,-3.78 -11.2,-8.84c-2.19,-6.49 -1.39,-13.74 1.27,-19.9c0.21,-0.5 0.81,-2.62 1.34,-2.88l6.16,-2.84s6,3.93 9.12,6.37s5.63,13.78 5.63,22.6s1.69,12.28 1.69,12.28z"/>
   <path id="svg_74" fill="#263238" d="m324.81,94.56a1.36,1.36 0 0 0 -1,1.25a1.33,1.33 0 0 0 0.66,1.36l0.34,-2.61z"/>
   <path id="svg_75" fill="none" stroke="#263238" stroke-linecap="round" stroke-linejoin="round" d="m324.81,89.48a3.34,3.34 0 0 1 1.85,0.51"/>
   <path id="svg_76" fill="#263238" d="m330.27,105.71s4.56,7.12 11.82,8.75s9.55,-0.89 10.52,-5a22.25,22.25 0 0 1 5.39,-10.37c2.51,-2.59 1,-9.62 -2.19,-15.4c0,0 3.42,-2.87 -2.09,-5.63s-7.54,1.83 -12.32,-0.85s1.6,-3.57 -2.91,4.79s-7,2.28 -7.67,6s-4.16,10.18 -0.55,17.71z"/>
   <path id="svg_77" fill="#5F76E8" d="m330.82,89.73c-0.45,-0.15 -14.91,-5.38 -15.05,-7.75s11.21,1.94 11.64,2.11l0,0l2.93,4.63l0.48,1.01z"/>
   <path id="svg_78" fill="#5F76E8" d="m360,95.46c-0.14,0.43 -1,3.28 -1.37,3.28l-1.21,-0.07q-1.69,-0.14 -3.36,-0.39c-1.23,-0.19 -2.44,-0.43 -3.63,-0.71l-0.05,0c-1.21,-0.29 -2.4,-0.61 -3.56,-1a76.49,76.49 0 0 1 -8.37,-3.07l0,0c-1.54,-0.67 -2.9,-1.32 -4,-1.88c-2.25,-1.12 -3.59,-1.91 -3.59,-1.91l-0.2,-0.33l-0.82,-1.29l-1.75,-2.77l-0.6,-0.93l0,-0.07a0.41,0.41 0 0 1 0,-0.26c0.06,-1.06 2.23,-4 2.62,-4.5a18.86,18.86 0 0 1 6,-5.22c3.22,-1.78 6.85,-1 10.27,-0.4a16.19,16.19 0 0 1 3.29,1.06l0,0l0.67,0.29l0,0l0.13,0.06c0.12,0.07 0.25,0.12 0.37,0.18l0.22,0.11a23.91,23.91 0 0 1 6.83,4.81c4.5,5.05 2.67,13.38 2.11,15.01z"/>
   <path id="svg_79" fill="#5F76E8" d="m355.11,128.62s-0.72,-5 -2.29,-6s-17.17,-0.85 -19.6,0.86s-2,7.3 -2,7.3l23.89,-2.16z"/>
   <path id="svg_80" fill="#b55b52" d="m327.42,97.81s2.66,-3.44 5.51,-1.31s0.59,7.18 -2.76,8.6c0,0 -4.33,1.41 -4.89,-3s2.14,-4.29 2.14,-4.29z"/>
   <path id="svg_81" fill="#5F76E8" d="m316.75,217.53s-5.95,56.93 -7.61,83.11s4.44,93.13 4.44,93.13l14.47,0s1.66,-66.51 4.16,-86.46s10.8,-47 10.8,-47s5,42.81 10,60.27s21.24,70.8 21.24,70.8l16.66,-3.2s-20,-68.43 -20,-89.63s0.19,-64 -4.79,-81l-49.37,-0.02z"/>
   <path id="svg_82" opacity="0.3" d="m390.88,388.2l-16.65,3.21s-16.23,-53.34 -21.23,-70.8c-2.75,-9.6 -5.49,-26.89 -7.4,-40.5c-1.6,-11.11 -2.6,-19.77 -2.6,-19.77s-8.31,27 -10.81,47s-4.15,86.46 -4.15,86.46l-14.46,0s-6.1,-66.94 -4.44,-93.12s7.61,-83.12 7.61,-83.12l49.32,0c5,17 4.8,59.85 4.8,81s20.01,89.64 20.01,89.64z"/>
   <path id="svg_83" opacity="0.3" d="m345.59,280.11c-1.59,-11.11 -2.59,-19.77 -2.59,-19.77l1,-15.54l1.59,35.31z"/>
   <polygon id="svg_84" fill="#263238" points="312.01 390.99 329.35 390.99 328.5 398.13 312.69 398.13 312.01 390.99"/>
   <polygon id="svg_85" fill="#263238" points="372.14 389.95 390.89 382.98 393.26 393.12 374.96 398.13 372.14 389.95"/>
   <polygon id="svg_86" opacity="0.2" points="387.51 390.6 379.05 393.21 380.34 398.64 390.05 396.3 387.51 390.6"/>
   <path id="svg_87" opacity="0.2" d="m327.29,401l-11,0l-0.3,-7.14l0.07,-0.38l11.18,1.11s0.03,2.96 0.05,6.41z"/>
   <path id="svg_88" fill="none" stroke="#5F76E8" stroke-miterlimit="10" d="m311,414.39c0.07,0.19 -6.92,-3.88 -5,-5.78s5,5.78 5,5.78z"/>
   <path id="svg_89" fill="none" stroke="#5F76E8" stroke-miterlimit="10" d="m312,414.1c-0.05,0.2 -3.9,-6.91 -1.28,-7.54s1.28,7.54 1.28,7.54z"/>
   <path id="svg_90" fill="none" stroke="#5F76E8" stroke-miterlimit="10" d="m381.09,410.07s-2.29,-7.37 -4.51,-6.16s4.51,6.16 4.51,6.16z"/>
   <path id="svg_91" fill="none" stroke="#5F76E8" stroke-miterlimit="10" d="m380.47,410.71s-5.17,-5.71 -6.68,-3.71s6.68,3.71 6.68,3.71z"/>
   <path id="svg_92" fill="#263238" d="m394.75,408.53l-12.42,0s-7.18,4.32 -10.33,4.72s-5,0.59 -4.91,2.85s2,2.46 8.45,2.36s19.25,0.69 20.64,-0.59s0.51,-3.69 -1.43,-9.34z"/>
   <path id="svg_93" fill="#263238" d="m327.5,410.07l-12,0.09s-7.18,4.32 -10.32,4.72s-5,0.59 -4.92,2.85s2,2.46 8.46,2.36s17.85,0.83 19.24,-0.45s0.62,-3.38 -0.46,-9.57z"/>
   <path id="svg_94" opacity="0.3" d="m327.41,84.09c0.31,1.59 0.63,2.81 3.26,5.58c-3.34,-1.24 -14.78,-5.66 -14.9,-7.69s8.76,1.02 11.64,2.11z"/>
   <path id="svg_95" opacity="0.3" d="m327.41,84.34a0.41,0.41 0 0 1 0,-0.26l0,0s0,0.11 0,0.32l0,-0.06z"/>
   <path id="svg_96" opacity="0.3" d="m330.82,89.73l-0.31,-0.12a0.67,0.67 0 0 1 0.06,-0.12l0.25,0.24z"/>
   <path id="svg_97" fill="#5F76E8" d="m360,95.46c-0.14,0.43 -1,3.28 -1.37,3.28l-1.21,-0.07q-1.69,-0.14 -3.36,-0.39c-1.23,-0.19 -2.44,-0.43 -3.63,-0.71l-0.05,0c-1.21,-0.29 -2.4,-0.61 -3.56,-1a76.49,76.49 0 0 1 -8.37,-3.07l0,0c-1.54,-0.67 -2.9,-1.32 -4,-1.88c-2.25,-1.12 -3.59,-1.91 -3.59,-1.91l-0.2,-0.33l-0.82,-1.29l-1.75,-2.77l-0.6,-0.93l0,-0.07a0.41,0.41 0 0 1 0,-0.26c0.06,-1.06 2.23,-4 2.62,-4.5a18.86,18.86 0 0 1 6,-5.22c3.22,-1.78 6.85,-1 10.27,-0.4a16.19,16.19 0 0 1 3.29,1.06l0,0l0.67,0.29l0,0l0.13,0.06c0.12,0.07 0.25,0.12 0.37,0.18l0.22,0.11a23.91,23.91 0 0 1 6.83,4.81c4.5,5.05 2.67,13.38 2.11,15.01z"/>
   <path id="svg_98" opacity="0.2" d="m340.33,115.5a44.23,44.23 0 0 1 -3.36,3.15c0,-1.28 -0.16,-2.19 -0.16,-2.19a15.88,15.88 0 0 0 3.52,-0.96z"/>
   <path id="svg_99" fill="#263238" d="m316.75,218.09l0,-51.22l-9.35,-3.81s1.79,-27.33 15.1,-31.64s37,-6.12 43.52,0c4.12,3.89 4.67,10.13 4.82,15.48c0.32,10.9 -2.53,21.56 -3.16,32.4c-0.5,8.82 -0.8,17.64 -1,26.47c0,0.68 -0.26,12.32 -0.28,12.32l-49.65,0z"/>
   <path id="svg_100" fill="#b55b52" d="m321.87,168.62s-6.92,22.86 -13.76,24.29s-30.2,-11.32 -30.2,-11.32l-10.43,0l-1.48,-9.17s9.71,-3.6 16.18,0.71c0,0 15.11,6.59 20.14,8.51l7.29,-17.64l12.26,4.62z"/>
  </g>
 </g>
</svg>